<svg width="142" height="106" viewBox="0 0 142 106" fill="none" xmlns="http://www.w3.org/2000/svg">
<g clip-path="url(#clip0_683_53215)">
<path d="M86.5266 6.70108C89.1974 5.41788 92.391 6.73697 93.3779 9.53093L97.0057 19.802C97.6018 21.4899 99.0582 22.7279 100.82 23.0445L111.596 24.9807C114.525 25.5069 116.341 28.4677 115.484 31.3171L112.384 41.6109C111.863 43.3403 112.32 45.216 113.577 46.5127L121.124 54.2952C123.209 56.4462 122.937 59.9387 120.543 61.7401L111.979 68.1843C110.528 69.2762 109.786 71.0716 110.044 72.8693L111.564 83.4786C111.989 86.4444 109.717 89.1112 106.722 89.1634L95.8829 89.3522C94.0771 89.3836 92.4299 90.3905 91.5784 91.9833L86.5103 101.464C85.1074 104.088 81.7311 104.904 79.2846 103.21L70.283 96.9775C68.8113 95.9585 66.9058 95.8079 65.2922 96.5831L55.4737 101.3C52.8028 102.584 49.6092 101.264 48.6224 98.4705L44.9946 88.1994C44.3984 86.5115 42.9421 85.2735 41.1801 84.9569L30.404 83.0207C27.4752 82.4945 25.6588 79.5337 26.5167 76.6844L29.6162 66.3906C30.1369 64.6612 29.6804 62.7854 28.4231 61.4888L20.8767 53.7062C18.791 51.5552 19.0634 48.0628 21.4575 46.2613L30.0215 39.8172C31.4727 38.7252 32.2142 36.9299 31.9566 35.1322L30.4363 24.5228C30.0113 21.557 32.2828 18.8902 35.2785 18.838L46.1174 18.6493C47.9232 18.6178 49.5704 17.611 50.4219 16.0182L55.49 6.53751C56.8929 3.91322 60.2692 3.09723 62.7157 4.79121L71.7172 11.0239C73.189 12.043 75.0945 12.1936 76.7081 11.4183L86.5266 6.70108Z" fill="url(#paint0_linear_683_53215)"/>
<g opacity="0.4" filter="url(#filter0_i_683_53215)">
<path d="M104.825 54.2827C104.825 72.9566 89.6868 88.0947 71.0129 88.0947C52.3391 88.0947 37.2009 72.9566 37.2009 54.2827C37.2009 35.6089 52.3391 20.4707 71.0129 20.4707C89.6868 20.4707 104.825 35.6089 104.825 54.2827ZM41.1263 54.2827C41.1263 70.7887 54.507 84.1694 71.0129 84.1694C87.5189 84.1694 100.9 70.7887 100.9 54.2827C100.9 37.7768 87.5189 24.396 71.0129 24.396C54.507 24.396 41.1263 37.7768 41.1263 54.2827Z" fill="#7DDC80"/>
</g>
<path d="M82.7543 41.2926L64.9376 60.3855L59.2408 54.2872C58.9665 53.9875 58.6355 53.7487 58.2682 53.5854C57.901 53.4222 57.5051 53.338 57.1051 53.338C56.705 53.338 56.3092 53.4222 55.9419 53.5854C55.5747 53.7487 55.2437 53.9875 54.9694 54.2872C54.4004 54.9056 54.0833 55.7249 54.0833 56.5767C54.0833 57.4284 54.4004 58.2477 54.9694 58.8661L62.8163 67.2765C63.0906 67.5762 63.4215 67.815 63.7888 67.9782C64.1561 68.1415 64.5519 68.2257 64.952 68.2257C65.352 68.2257 65.7478 68.1415 66.1151 67.9782C66.4824 67.815 66.8133 67.5762 67.0876 67.2765L87.0561 45.8698C87.6251 45.2514 87.9422 44.4321 87.9422 43.5804C87.9422 42.7287 87.6251 41.9093 87.0561 41.2909C86.7787 40.991 86.445 40.7522 86.0753 40.5891C85.7056 40.4259 85.3075 40.3418 84.9052 40.3418C84.5029 40.3418 84.1048 40.4259 83.735 40.5891C83.3653 40.7522 83.0316 40.991 82.7543 41.2909V41.2926Z" fill="white"/>
</g>
<defs>
<filter id="filter0_i_683_53215" x="37.2009" y="20.4707" width="67.624" height="70.4419" filterUnits="userSpaceOnUse" color-interpolation-filters="sRGB">
<feFlood flood-opacity="0" result="BackgroundImageFix"/>
<feBlend mode="normal" in="SourceGraphic" in2="BackgroundImageFix" result="shape"/>
<feColorMatrix in="SourceAlpha" type="matrix" values="0 0 0 0 0 0 0 0 0 0 0 0 0 0 0 0 0 0 127 0" result="hardAlpha"/>
<feOffset dy="2.8169"/>
<feGaussianBlur stdDeviation="1.40845"/>
<feComposite in2="hardAlpha" operator="arithmetic" k2="-1" k3="1"/>
<feColorMatrix type="matrix" values="0 0 0 0 0 0 0 0 0 0 0 0 0 0 0 0 0 0 0.1 0"/>
<feBlend mode="normal" in2="shape" result="effect1_innerShadow_683_53215"/>
</filter>
<linearGradient id="paint0_linear_683_53215" x1="51.5939" y1="6.48274" x2="85.4529" y2="100.093" gradientUnits="userSpaceOnUse">
<stop stop-color="#60CB64"/>
<stop offset="1" stop-color="#43A047"/>
</linearGradient>
<clipPath id="clip0_683_53215">
<rect width="142" height="105" fill="white" transform="translate(0 0.5)"/>
</clipPath>
</defs>
</svg>
